<?xml version="1.0" encoding="utf-8"?>
<!-- Generator: Adobe Illustrator 16.0.3, SVG Export Plug-In . SVG Version: 6.00 Build 0)  -->
<!DOCTYPE svg PUBLIC "-//W3C//DTD SVG 1.1//EN" "http://www.w3.org/Graphics/SVG/1.1/DTD/svg11.dtd">
<svg version="1.1" xmlns="http://www.w3.org/2000/svg" xmlns:xlink="http://www.w3.org/1999/xlink" x="0px" y="0px" width="24px"
	 height="24px" viewBox="0 0 24 24" enable-background="new 0 0 24 24" xml:space="preserve">
<g id="Outline_Icons">
	<g>
		
			<line fill="none" stroke="#ffffff" stroke-linecap="round" stroke-linejoin="round" stroke-miterlimit="10" x1="9.5" y1="0.5" x2="9.5" y2="1.5"/>
		
			<line fill="none" stroke="#ffffff" stroke-linecap="round" stroke-linejoin="round" stroke-miterlimit="10" x1="2.5" y1="2.5" x2="3.5" y2="3.5"/>
		
			<line fill="none" stroke="#ffffff" stroke-linecap="round" stroke-linejoin="round" stroke-miterlimit="10" x1="16.5" y1="2.5" x2="15.5" y2="3.5"/>
		
			<line fill="none" stroke="#ffffff" stroke-linecap="round" stroke-linejoin="round" stroke-miterlimit="10" x1="0.5" y1="9.5" x2="1.5" y2="9.5"/>
		<path fill="none" stroke="#ffffff" stroke-linecap="round" stroke-linejoin="round" stroke-miterlimit="10" d="M21.751,16.165
			c0.917-2.109-0.8-4.457-3.123-4.169c-0.794-2.061-2.788-3.525-5.128-3.525c-2.877,0-5.234,2.21-5.477,5.024
			c-2.538,0.239-4.523,2.39-4.523,4.99c0,2.762,2.238,5.015,5,5.015h11c2.209,0,4-1.805,4-4.015
			C23.5,18.112,22.807,16.886,21.751,16.165z"/>
		<path fill="none" stroke="#ffffff" stroke-linecap="round" stroke-linejoin="round" stroke-miterlimit="10" d="M13.986,5.523
			C12.887,4.284,11.286,3.5,9.5,3.5c-3.313,0-6,2.688-6,6c0,0.688,0.118,1.345,0.334,1.959"/>
	</g>
</g>
<g id="Invisible_Shape">
	<rect fill="none" width="24" height="24"/>
</g>
</svg>
