<?xml version="1.0" encoding="utf-8"?>
<!-- Generator: Adobe Illustrator 16.0.3, SVG Export Plug-In . SVG Version: 6.00 Build 0)  -->
<!DOCTYPE svg PUBLIC "-//W3C//DTD SVG 1.1//EN" "http://www.w3.org/Graphics/SVG/1.1/DTD/svg11.dtd">
<svg version="1.1" xmlns="http://www.w3.org/2000/svg" xmlns:xlink="http://www.w3.org/1999/xlink" x="0px" y="0px" width="24px"
	 height="24px" viewBox="0 0 24 24" enable-background="new 0 0 24 24" xml:space="preserve">
<g id="Outline_Icons">
	<g>
		<path fill="none" stroke="#ffffff" stroke-linecap="round" stroke-linejoin="round" stroke-miterlimit="10" d="M18.728,16.17
			c0.917-2.109-0.8-4.457-3.123-4.169c-0.794-2.061-2.788-3.525-5.128-3.525C7.6,8.476,5.242,10.686,5,13.5
			c-2.538,0.239-4.523,2.375-4.523,4.976c0,2.762,2.238,5,5,5h11c2.209,0,4-1.79,4-4C20.477,18.103,19.783,16.891,18.728,16.17z"/>
		<path fill="none" stroke="#ffffff" stroke-linecap="round" stroke-linejoin="round" stroke-miterlimit="10" d="M22.001,14.577
			c0.9-0.732,1.476-1.85,1.476-3.102c0-1.374-0.693-2.585-1.748-3.306c0.917-2.109-0.8-4.457-3.123-4.169
			c-0.794-2.061-2.789-3.525-5.129-3.525c-2.877,0-5.234,2.21-5.476,5.024c-2.538,0.239-4.524,2.375-4.524,4.976"/>
	</g>
</g>
<g id="Invisible_Shape">
	<rect fill="none" width="24" height="24"/>
</g>
</svg>
