<?xml version="1.0" encoding="utf-8"?>
<!-- Generator: Adobe Illustrator 16.0.3, SVG Export Plug-In . SVG Version: 6.00 Build 0)  -->
<!DOCTYPE svg PUBLIC "-//W3C//DTD SVG 1.1//EN" "http://www.w3.org/Graphics/SVG/1.1/DTD/svg11.dtd">
<svg version="1.1" xmlns="http://www.w3.org/2000/svg" xmlns:xlink="http://www.w3.org/1999/xlink" x="0px" y="0px" width="24px"
	 height="24px" viewBox="0 0 24 24" enable-background="new 0 0 24 24" xml:space="preserve">
<g id="Outline_Icons">
	<g>
		
			<line fill="none" stroke="#ffffff" stroke-linecap="round" stroke-linejoin="round" stroke-miterlimit="10" x1="1.5" y1="23.471" x2="6.5" y2="18.471"/>
		
			<line fill="none" stroke="#ffffff" stroke-linecap="round" stroke-linejoin="round" stroke-miterlimit="10" x1="5.5" y1="22.471" x2="9.5" y2="18.471"/>
		
			<line fill="none" stroke="#ffffff" stroke-linecap="round" stroke-linejoin="round" stroke-miterlimit="10" x1="7.5" y1="23.471" x2="12.5" y2="18.471"/>
		
			<line fill="none" stroke="#ffffff" stroke-linecap="round" stroke-linejoin="round" stroke-miterlimit="10" x1="11.5" y1="22.471" x2="15.5" y2="18.471"/>
		
			<line fill="none" stroke="#ffffff" stroke-linecap="round" stroke-linejoin="round" stroke-miterlimit="10" x1="13.5" y1="23.471" x2="18.5" y2="18.471"/>
		<path fill="none" stroke="#ffffff" stroke-linecap="round" stroke-linejoin="round" stroke-miterlimit="10" d="M20.752,8.193
			c0.916-2.109-0.8-4.457-3.123-4.168C16.835,1.965,14.841,0.5,12.5,0.5c-2.877,0-5.234,2.21-5.477,5.024
			C4.486,5.764,2.5,7.898,2.5,10.5c0,2.762,2.238,5,5,5h11c2.21,0,4-1.79,4-4C22.5,10.127,21.807,8.914,20.752,8.193z"/>
	</g>
</g>
<g id="Invisible_Shape">
	<rect fill="none" width="24" height="24"/>
</g>
</svg>
