<?xml version="1.0" encoding="utf-8"?>
<!-- Generator: Adobe Illustrator 16.0.3, SVG Export Plug-In . SVG Version: 6.00 Build 0)  -->
<!DOCTYPE svg PUBLIC "-//W3C//DTD SVG 1.1//EN" "http://www.w3.org/Graphics/SVG/1.1/DTD/svg11.dtd">
<svg version="1.1" xmlns="http://www.w3.org/2000/svg" xmlns:xlink="http://www.w3.org/1999/xlink" x="0px" y="0px" width="24px"
	 height="24px" viewBox="0 0 24 24" enable-background="new 0 0 24 24" xml:space="preserve">
<g id="Outline_Icons">
	<g>
		<polyline fill="none" stroke="#ffffff" stroke-linecap="round" stroke-linejoin="round" stroke-miterlimit="10" points="6,23.485 
			8.5,21 6,21 8.5,18.493 		"/>
		<polyline fill="none" stroke="#ffffff" stroke-linecap="round" stroke-linejoin="round" stroke-miterlimit="10" points="
			11,23.485 13.5,21 11,21 13.5,18.493 		"/>
		<polyline fill="none" stroke="#ffffff" stroke-linecap="round" stroke-linejoin="round" stroke-miterlimit="10" points="
			16,23.485 18.5,21 16,21 18.5,18.493 		"/>
		<path fill="none" stroke="#ffffff" stroke-linecap="round" stroke-linejoin="round" stroke-miterlimit="10" d="M21.252,8.194
			c0.916-2.109-0.8-4.457-3.123-4.168C17.335,1.965,15.341,0.5,13,0.5c-2.877,0-5.234,2.21-5.477,5.024C4.986,5.764,3,7.9,3,10.5
			c0,2.762,2.238,5,5,5h11c2.21,0,4-1.79,4-4C23,10.127,22.307,8.915,21.252,8.194z"/>
	</g>
</g>
<g id="Invisible_Shape">
	<rect fill="none" width="24" height="24"/>
</g>
</svg>
