<?xml version="1.0" encoding="utf-8"?>
<!-- Generator: Adobe Illustrator 16.0.3, SVG Export Plug-In . SVG Version: 6.00 Build 0)  -->
<!DOCTYPE svg PUBLIC "-//W3C//DTD SVG 1.1//EN" "http://www.w3.org/Graphics/SVG/1.1/DTD/svg11.dtd">
<svg version="1.1" xmlns="http://www.w3.org/2000/svg" xmlns:xlink="http://www.w3.org/1999/xlink" x="0px" y="0px" width="24px"
	 height="24px" viewBox="0 0 24 24" enable-background="new 0 0 24 24" xml:space="preserve">
<g id="Outline_Icons">
	<g>
		<path fill="none" stroke="#ffffff" stroke-linecap="round" stroke-linejoin="round" stroke-miterlimit="10" d="M20.752,8.194
			c0.916-2.109-0.8-4.457-3.123-4.169C16.835,1.965,14.841,0.5,12.5,0.5c-2.877,0-5.234,2.21-5.477,5.024
			C4.486,5.764,2.5,7.899,2.5,10.5c0,2.762,2.238,5,5,5h11c2.21,0,4-1.79,4-4C22.5,10.127,21.807,8.915,20.752,8.194z"/>
		<g>
			<g>
				<path d="M12.5,18c-0.276,0-0.5,0.224-0.5,0.5s0.224,0.5,0.5,0.5s0.5-0.224,0.5-0.5S12.776,18,12.5,18L12.5,18z"/>
			</g>
		</g>
		<g>
			<g>
				<path d="M18.5,19.5c-0.276,0-0.5,0.224-0.5,0.5s0.224,0.5,0.5,0.5S19,20.276,19,20S18.776,19.5,18.5,19.5L18.5,19.5z"/>
			</g>
		</g>
		<g>
			<g>
				<path d="M18.5,22.5c-0.276,0-0.5,0.224-0.5,0.5s0.224,0.5,0.5,0.5S19,23.276,19,23S18.776,22.5,18.5,22.5L18.5,22.5z"/>
			</g>
		</g>
		<g>
			<g>
				<path d="M12.5,21c-0.276,0-0.5,0.224-0.5,0.5s0.224,0.5,0.5,0.5s0.5-0.224,0.5-0.5S12.776,21,12.5,21L12.5,21z"/>
			</g>
		</g>
		<g>
			<g>
				<path d="M16.5,21c-0.276,0-0.5,0.224-0.5,0.5s0.224,0.5,0.5,0.5s0.5-0.224,0.5-0.5S16.776,21,16.5,21L16.5,21z"/>
			</g>
		</g>
		<g>
			<g>
				<path d="M14.5,22.5c-0.276,0-0.5,0.224-0.5,0.5s0.224,0.5,0.5,0.5S15,23.276,15,23S14.776,22.5,14.5,22.5L14.5,22.5z"/>
			</g>
		</g>
		<g>
			<g>
				<path d="M16.5,18c-0.276,0-0.5,0.224-0.5,0.5s0.224,0.5,0.5,0.5s0.5-0.224,0.5-0.5S16.776,18,16.5,18L16.5,18z"/>
			</g>
		</g>
		<g>
			<g>
				<path d="M14.5,19.5c-0.276,0-0.5,0.224-0.5,0.5s0.224,0.5,0.5,0.5S15,20.276,15,20S14.776,19.5,14.5,19.5L14.5,19.5z"/>
			</g>
		</g>
		<g>
			<g>
				<path d="M10.5,19.5c-0.276,0-0.5,0.224-0.5,0.5s0.224,0.5,0.5,0.5S11,20.276,11,20S10.776,19.5,10.5,19.5L10.5,19.5z"/>
			</g>
		</g>
		<g>
			<g>
				<path d="M10.5,22.5c-0.276,0-0.5,0.224-0.5,0.5s0.224,0.5,0.5,0.5S11,23.276,11,23S10.776,22.5,10.5,22.5L10.5,22.5z"/>
			</g>
		</g>
		<g>
			<g>
				<path d="M8.5,21C8.224,21,8,21.224,8,21.5S8.224,22,8.5,22S9,21.776,9,21.5S8.776,21,8.5,21L8.5,21z"/>
			</g>
		</g>
		<g>
			<g>
				<path d="M6.5,22.5C6.224,22.5,6,22.724,6,23s0.224,0.5,0.5,0.5S7,23.276,7,23S6.776,22.5,6.5,22.5L6.5,22.5z"/>
			</g>
		</g>
		<g>
			<g>
				<path d="M8.5,18C8.224,18,8,18.224,8,18.5S8.224,19,8.5,19S9,18.776,9,18.5S8.776,18,8.5,18L8.5,18z"/>
			</g>
		</g>
		<g>
			<g>
				<path d="M6.5,19.5C6.224,19.5,6,19.724,6,20s0.224,0.5,0.5,0.5S7,20.276,7,20S6.776,19.5,6.5,19.5L6.5,19.5z"/>
			</g>
		</g>
	</g>
</g>
<g id="Invisible_Shape">
	<rect fill="none" width="24" height="24"/>
</g>
</svg>
