<svg id="Ebene_1" data-name="Ebene 1" xmlns="http://www.w3.org/2000/svg" viewBox="0 0 50 50"><defs><style>.cls-1{fill:#ff3941;}.cls-2{fill:#fff;}.cls-3{fill:none;stroke:#fff;stroke-linecap:round;stroke-miterlimit:10;stroke-width:2px;}</style></defs><title>appstore_icons</title><rect class="cls-1" width="50" height="50"/><path class="cls-2" d="M13.59,36.65a.67.67,0,0,1-.22-.51,1.67,1.67,0,0,1,0-.39l9-23.49a1.12,1.12,0,0,1,1.16-.8H26a1.12,1.12,0,0,1,1.16.8l9,23.49.07.39a.75.75,0,0,1-.73.73H33.66a.91.91,0,0,1-.62-.2,1,1,0,0,1-.29-.42l-2-5.15H18.85l-2,5.15a.92.92,0,0,1-.31.42.89.89,0,0,1-.6.2H14.09A.66.66,0,0,1,13.59,36.65ZM29.7,28,24.8,15.09,19.9,28Z"/><path class="cls-3" d="M5.29,31.42a20.75,20.75,0,0,1,1.48-16.3"/><path class="cls-3" d="M21.26,4.61A21,21,0,0,1,25,4.27,20.73,20.73,0,1,1,7,35.36"/><path class="cls-3" d="M9.72,11a20.75,20.75,0,0,1,6.54-4.8"/></svg>