<?xml version="1.0" encoding="UTF-8"?>
<svg version="1.1" viewBox="0 0 24 24" xmlns="http://www.w3.org/2000/svg" xmlns:xlink="http://www.w3.org/1999/xlink">
    <!--Generated by IJSVG (https://github.com/iconjar/IJSVG)-->
    <g stroke-width="1" stroke="#FFF" fill="none" stroke-linejoin="round">
        <path d="M11.904,8.255c0.146,-0.254 0.059,-0.58 -0.195,-0.726l-1.386,-0.794c-0.253,-0.147 -0.581,-0.058 -0.725,0.196l-5.774,10.142c-0.146,0.252 -0.057,0.578 0.196,0.724l1.386,0.796c0.253,0.146 0.58,0.058 0.727,-0.195l5.771,-10.143Z"></path>
        <path d="M4.309,20.237l-1.385,-0.794c-0.254,-0.146 -0.488,-0.027 -0.521,0.263l-0.24,2.086c-0.033,0.29 0.138,0.394 0.379,0.23l1.79,-1.22c0.241,-0.163 0.23,-0.419 -0.023,-0.565Z"></path>
        <path d="M20.656,17.197c-0.416,-0.759 -8.466,-16.27 -9.238,-15.88c-0.848,0.421 6.79,16.885 7.404,17.193c0.555,0.278 0.769,0.123 1.139,-0.03c0.37,-0.155 1.033,-0.666 0.695,-1.283Z"></path>
        <path d="M20.809,19.875c-0.207,0.199 -0.701,0.632 -0.104,1.471c0.596,0.841 1.928,0.878 2.104,1.438c0,-0.001 0.418,-4.272 -2,-2.909Z"></path>
        <path d="M10,14.5h5"></path>
        <path d="M6,10.5h-5.5v4h2.5"></path>
        <path d="M21,14.5h2.5v-4h-4.5"></path>
    </g>
    <path fill="none" d="M0,0h24v24h-24Z"></path>
</svg>