<svg id="Ebene_1" data-name="Ebene 1" xmlns="http://www.w3.org/2000/svg" xmlns:xlink="http://www.w3.org/1999/xlink" viewBox="0 0 50 50"><defs><style>.cls-1{fill:#df6914;}.cls-2{fill:none;}.cls-2,.cls-4,.cls-5{stroke:#fff;stroke-miterlimit:10;}.cls-3{fill:url(#Unbenannter_Verlauf);}.cls-4,.cls-7{fill:#fff;}.cls-5{fill:#d06a14;}.cls-6{isolation:isolate;}</style><linearGradient id="Unbenannter_Verlauf" x1="13.3" y1="29.5" x2="46" y2="29.5" gradientTransform="matrix(1, 0, 0, -1, 0, 52)" gradientUnits="userSpaceOnUse"><stop offset="0" stop-color="#fff"/><stop offset="1" stop-color="#d06a14" stop-opacity="0"/></linearGradient></defs><title>appstore_icons</title><rect class="cls-1" width="50" height="50"/><rect class="cls-2" x="6.9" y="18.8" width="12.8" height="7.5"/><rect class="cls-3" x="13.3" y="19.9" width="32.7" height="5.2"/><rect class="cls-2" x="6.9" y="9.1" width="12.8" height="9.7"/><circle class="cls-2" cx="13.3" cy="13.9" r="2.6"/><path class="cls-2" d="M15.7,14.4a2.33,2.33,0,0,1-2.4,2.1,2.33,2.33,0,0,1-2.4-2.1c0-1,1-1.5,2.4-1.5S15.7,13.4,15.7,14.4Z"/><polyline class="cls-4" points="6.9 9.1 4 9.1 4 26.3 6.9 26.3"/><polyline class="cls-4" points="11.3 26.3 9.8 26.3 9.8 41 11.3 41"/><polyline class="cls-2" points="11.3 26.3 11.3 41 14.2 41 14.2 26.3"/><circle class="cls-5" cx="13.3" cy="22.5" r="2.1"/><path class="cls-2" d="M15.3,22.9a1.9,1.9,0,0,1-2,1.7,1.91,1.91,0,0,1-2-1.8c0-.8.8-1.2,2-1.2S15.3,22.1,15.3,22.9Z"/><g class="cls-6"><path class="cls-7" d="M16.85,29.05h5.32a1.61,1.61,0,0,1,1.09.32,1.2,1.2,0,0,1,.44.92,1.29,1.29,0,0,1-.56,1.05,2.28,2.28,0,0,1-.88.33,2.13,2.13,0,0,1,.88.21,1.07,1.07,0,0,1,.6,1c0,.84-.77,1.38-1.95,1.38H16.85Zm3.67,2.15c.37,0,.5-.11.5-.39s-.13-.39-.5-.39h-1v.78Zm.14,1.8c.32,0,.46-.1.46-.38s-.13-.38-.46-.38H19.53V33Z"/><path class="cls-7" d="M24.51,34.25V28.83H27v5.42Z"/><path class="cls-7" d="M27.88,34.25V29.79a6.2,6.2,0,0,0,1.26.08,6.3,6.3,0,0,0,1.27-.08v4.46Zm2.53-4.85c0,.18-.06.22-.32.22H28.28c-.26,0-.31,0-.31-.22v-.48c0-.18.05-.22.31-.22h1.81c.27,0,.32,0,.32.22Z"/><path class="cls-7" d="M35.22,34.17a9.05,9.05,0,0,1-2,.19c-1.2,0-1.66-.33-1.66-1.17V31.62h-.75v-.88l1.88-1.69H34.1v.82h1.74v1.75H34.1v.91c0,.41.09.46.73.46a4.09,4.09,0,0,0,.71-.05Z"/><path class="cls-7" d="M36.31,34.25v-1l2.09-1.59h-2V29.87h5.06v1.37l-1.84,1.5h1.91v1.51Z"/></g><g class="cls-6"><path class="cls-7" d="M16.7,39a17.86,17.86,0,0,0,2.91.25c.24,0,.36-.07.36-.23s-.09-.18-.37-.18h-.43c-.21,0-.68,0-1-.06a1.75,1.75,0,0,1-1.32-.59,1.57,1.57,0,0,1-.31-1,1.61,1.61,0,0,1,.62-1.37,4.64,4.64,0,0,1,2.59-.54,14.62,14.62,0,0,1,2.74.25v1.53a21,21,0,0,0-2.09-.18h-.59c-.36,0-.5.07-.5.24s.11.21.29.21h.94a4.06,4.06,0,0,1,1.34.19,1.35,1.35,0,0,1,.81,1.29,1.68,1.68,0,0,1-.81,1.42,3.9,3.9,0,0,1-2.31.46,14.61,14.61,0,0,1-2.89-.27Z"/><path class="cls-7" d="M23.47,40.6V36.14a7.19,7.19,0,0,0,1.26.07A7.31,7.31,0,0,0,26,36.14V40.6ZM26,35.75c0,.18-.06.21-.32.21H23.87c-.26,0-.32,0-.32-.21v-.49c0-.18.06-.22.32-.22h1.81c.27,0,.32,0,.32.22Z"/><path class="cls-7" d="M32,40.39a6.67,6.67,0,0,1-2.11.32,5.37,5.37,0,0,1-2.12-.33,2.11,2.11,0,0,1-1.12-2,2,2,0,0,1,.78-1.73,4.56,4.56,0,0,1,2.41-.52,13.15,13.15,0,0,1,2.16.22L32,38a11.63,11.63,0,0,0-1.69-.15,3.12,3.12,0,0,0-.7.06.61.61,0,0,0-.46.6c0,.4.33.63.91.63A10.77,10.77,0,0,0,32,38.93Z"/><path class="cls-7" d="M36.61,40.6V38.45c0-.43-.17-.6-.61-.6s-.66.2-.66.66V40.6H32.81V35.18h2.53v1.7a2,2,0,0,1,1.89-.77c1.29,0,1.91.56,1.91,1.77V40.6Z"/><path class="cls-7" d="M44,40.51a9.07,9.07,0,0,1-2,.2c-1.19,0-1.65-.33-1.65-1.17V38h-.75v-.89l1.88-1.68h1.39v.81h1.74V38H42.83v.9c0,.41.09.46.73.46a4.11,4.11,0,0,0,.71,0Z"/></g></svg>