<?xml version="1.0" encoding="utf-8"?>
<!-- Generator: Adobe Illustrator 16.0.3, SVG Export Plug-In . SVG Version: 6.00 Build 0)  -->
<!DOCTYPE svg PUBLIC "-//W3C//DTD SVG 1.1//EN" "http://www.w3.org/Graphics/SVG/1.1/DTD/svg11.dtd">
<svg version="1.1" xmlns="http://www.w3.org/2000/svg" xmlns:xlink="http://www.w3.org/1999/xlink" x="0px" y="0px" width="24px"
	 height="24px" viewBox="0 0 24 24" enable-background="new 0 0 24 24" xml:space="preserve">
<g id="Outline_Icons">
	<g>
		<circle fill="none" stroke="#ffffff" stroke-linejoin="round" stroke-miterlimit="10" cx="12" cy="12" r="11.5"/>
		<path fill="none" stroke="#ffffff" stroke-linejoin="round" stroke-miterlimit="10" d="M8.962,3.238
			C8.755,2.529,8.613,1.789,8.546,1.029"/>
		<path fill="none" stroke="#ffffff" stroke-linejoin="round" stroke-miterlimit="10" d="M17.709,11.438
			c-2.854-0.582-5.343-2.322-7.001-4.592"/>
		<path fill="none" stroke="#ffffff" stroke-linejoin="round" stroke-miterlimit="10" d="M23.451,10.93
			c-0.603,0.196-1.1,0.412-1.742,0.508"/>
		<path fill="none" stroke="#ffffff" stroke-linejoin="round" stroke-miterlimit="10" d="M15.46,18.182
			c-1.77,2.011-3.852,3.695-6.143,5.003"/>
		<path fill="none" stroke="#ffffff" stroke-linejoin="round" stroke-miterlimit="10" d="M18.82,13.238
			c-0.448,0.879-0.945,1.801-1.486,2.603"/>
		<path fill="none" stroke="#ffffff" stroke-linejoin="round" stroke-miterlimit="10" d="M21.289,5.219
			c-0.175,1.461-0.47,2.879-0.926,4.33"/>
		<path fill="none" stroke="#ffffff" stroke-linejoin="round" stroke-miterlimit="10" d="M3.794,16.596
			c-0.802-0.187-1.836-0.4-2.602-0.638"/>
		<path fill="none" stroke="#ffffff" stroke-linejoin="round" stroke-miterlimit="10" d="M10.5,17.438
			C8.832,17.369,7.239,17.264,5.709,17"/>
		<path fill="none" stroke="#ffffff" stroke-linejoin="round" stroke-miterlimit="10" d="M14.978,17.437
			c-0.519,0.037-0.965-0.016-1.478,0.001"/>
		<path fill="none" stroke="#ffffff" stroke-linejoin="round" stroke-miterlimit="10" d="M22.722,16.166
			c-1.587,0.43-3.202,0.639-4.8,0.865"/>
		<path fill="none" stroke="#ffffff" stroke-linejoin="round" stroke-miterlimit="10" d="M7.709,4.816
			C6.527,4.528,5.402,4.059,4.357,3.407"/>
		<path fill="none" stroke="#ffffff" stroke-linejoin="round" stroke-miterlimit="10" d="M18.076,2.234
			c-1.756,1.54-4.038,2.626-6.389,2.892"/>
		<path fill="none" stroke="#ffffff" stroke-linejoin="round" stroke-miterlimit="10" d="M12.874,18.657
			c0.811,1.261,1.789,2.925,2.268,4.376"/>
		<path fill="none" stroke="#ffffff" stroke-linejoin="round" stroke-miterlimit="10" d="M7.54,13.369
			c1.157,0.722,2.55,1.949,3.513,2.907"/>
		<path fill="none" stroke="#ffffff" stroke-linejoin="round" stroke-miterlimit="10" d="M0.562,10.822
			c1.167,0.167,2.228,0.445,3.312,0.823"/>
		<path fill="none" stroke="#ffffff" stroke-linejoin="round" stroke-miterlimit="10" d="M4.334,17.927
			c-0.274,0.528-0.659,1.158-1.004,1.64"/>
		<path fill="none" stroke="#ffffff" stroke-linejoin="round" stroke-miterlimit="10" d="M5.472,14.439
			c-0.089,0.527-0.211,1.141-0.365,1.643"/>
		<path fill="none" stroke="#ffffff" stroke-linejoin="round" stroke-miterlimit="10" d="M3.024,4.774
			c1.261,1.608,2.13,3.537,2.465,5.644"/>
		<circle fill="none" stroke="#ffffff" stroke-linejoin="round" stroke-miterlimit="10" cx="9.688" cy="5.126" r="2"/>
		<circle fill="none" stroke="#ffffff" stroke-linejoin="round" stroke-miterlimit="10" cx="5.709" cy="12.438" r="2"/>
		<circle fill="none" stroke="#ffffff" stroke-linejoin="round" stroke-miterlimit="10" cx="4.709" cy="17" r="1"/>
		<circle fill="none" stroke="#ffffff" stroke-linejoin="round" stroke-miterlimit="10" cx="12" cy="17.438" r="1.5"/>
		<circle fill="none" stroke="#ffffff" stroke-linejoin="round" stroke-miterlimit="10" cx="16.422" cy="17.031" r="1.5"/>
		<circle fill="none" stroke="#ffffff" stroke-linejoin="round" stroke-miterlimit="10" cx="19.709" cy="11.438" r="2"/>
	</g>
</g>
<g id="Invisible_Shape">
	<rect fill="none" width="24" height="24"/>
</g>
</svg>
