<svg id="Ebene_1" data-name="Ebene 1" xmlns="http://www.w3.org/2000/svg" xmlns:xlink="http://www.w3.org/1999/xlink" viewBox="0 0 50 50"><defs><style>.cls-1{fill:none;}.cls-2{fill:url(#Unbenannter_Verlauf_10);}.cls-3{fill:#b8ddae;}.cls-4{fill:#c4e3bb;}.cls-5{fill:#aad69d;}.cls-6{fill:#b3dba9;}.cls-7{fill:#93cb83;}.cls-8{fill:#a5d498;}.cls-9{fill:#aed8a3;}.cls-10{fill:#c7e4bf;}.cls-11{fill:#d3eacc;}.cls-12{fill:#8cc87b;}.cls-13{fill:#94cc85;}.cls-14{fill:#dceed8;}.cls-15{fill:#bfe0b6;}.cls-16{fill:#80c26e;}.cls-17{fill:#9cd08e;}.cls-18{fill:#badeb0;}.cls-19{fill:#7fc16c;}.cls-20{fill:#e1edd8;}.cls-21{fill:#d4eace;}.cls-22{fill:#a1d294;}.cls-23{fill:#70ba5b;}.cls-24{fill:#a0d192;}.cls-25{fill:#dbeed6;}.cls-26{fill:#deefd9;}.cls-27{fill:#eaf3e4;}.cls-28{fill:#d9edd4;}.cls-29{clip-path:url(#clip-path);}.cls-30{fill:#cee7c7;}.cls-31{fill:#eaf5e7;}.cls-32{fill:#bddfb4;}.cls-33{fill:#e9f1e1;}.cls-34{fill:#e8f4e5;}.cls-35{fill:#b6dfab;}.cls-36{fill:#ecf3e6;}.cls-37{fill:#73bc5f;}.cls-38{fill:#dbedcc;}.cls-39{fill:#c2e2b9;}.cls-40{fill:#add8a1;}.cls-41{fill:#85c574;}.cls-42{fill:#6db958;}.cls-43{fill:#a3d396;}.cls-44{fill:#63b44c;}.cls-45{fill:#b7dcac;}.cls-46{fill:#72bb5d;}.cls-47{fill:#68b652;}.cls-48{fill:#5bb043;}.cls-49{fill:#e6f5da;}.cls-50{fill:#97cd89;}.cls-51{fill:#5cb145;}.cls-52{fill:#73c25d;}.cls-53{fill:#7abf67;}.cls-54{fill:#b8e0ac;}.cls-55{fill:#9bcf8c;}.cls-56{fill:#b5dfa9;}.cls-57,.cls-58{fill:#fff;}.cls-57{stroke:#fff;stroke-linejoin:round;stroke-width:0.25px;}</style><linearGradient id="Unbenannter_Verlauf_10" x1="-2.4" y1="44.11" x2="54" y2="4.78" gradientUnits="userSpaceOnUse"><stop offset="0" stop-color="#b5c66b"/><stop offset="1" stop-color="#88c157"/></linearGradient><clipPath id="clip-path"><rect class="cls-1" width="50" height="50"/></clipPath></defs><title>appstore_icons</title><rect class="cls-2" width="50" height="50"/><polygon class="cls-3" points="12.79 30.31 23.29 31.38 21.43 21.43 12.79 30.31"/><polygon class="cls-4" points="11.43 22.04 12.79 30.31 21.43 21.43 11.43 22.04"/><polygon class="cls-5" points="12.79 30.31 19.82 41.79 23.29 31.38 12.79 30.31"/><polygon class="cls-6" points="21.43 21.43 23.29 31.38 29.57 17.6 21.43 21.43"/><polygon class="cls-7" points="23.29 31.38 26.75 44.23 28.39 33.88 23.29 31.38"/><polygon class="cls-8" points="15.25 45.2 19.82 41.79 12.79 30.31 15.25 45.2"/><polygon class="cls-9" points="15.25 45.2 12.79 30.31 3.43 40 15.25 45.2"/><polygon class="cls-10" points="5.61 29.85 12.79 30.31 11.43 22.04 5.61 29.85"/><polygon class="cls-11" points="21.43 21.43 15.25 7.35 11.43 22.04 21.43 21.43"/><polygon class="cls-8" points="23.29 31.38 28.39 33.88 29.57 17.6 23.29 31.38"/><polygon class="cls-12" points="21.72 50 23.46 50 26.75 44.23 19.82 41.79 21.72 50"/><polygon class="cls-13" points="19.82 41.79 26.75 44.23 23.29 31.38 19.82 41.79"/><polygon class="cls-11" points="23.04 7.4 15.25 7.35 21.43 21.43 23.04 7.4"/><polygon class="cls-11" points="5.43 17.3 5.61 29.85 11.43 22.04 5.43 17.3"/><polygon class="cls-14" points="15.25 7.35 5.43 17.3 11.43 22.04 15.25 7.35"/><polygon class="cls-4" points="29.57 17.6 23.04 7.4 21.43 21.43 29.57 17.6"/><polygon class="cls-4" points="29.43 10.15 23.04 7.4 29.57 17.6 29.43 10.15"/><polygon class="cls-15" points="3.43 40 12.79 30.31 5.61 29.85 3.43 40"/><polygon class="cls-4" points="0 30.66 0 35.16 3.43 40 5.61 29.85 0 30.66"/><polygon class="cls-16" points="28.39 33.88 37.29 39.9 35.21 30.46 28.39 33.88"/><polygon class="cls-17" points="29.57 17.6 28.39 33.88 35.21 30.46 29.57 17.6"/><polygon class="cls-18" points="39.25 7.6 29.43 10.15 29.57 17.6 39.25 7.6"/><polygon class="cls-13" points="15.25 45.2 19.77 50 21.72 50 19.82 41.79 15.25 45.2"/><polygon class="cls-19" points="28.39 33.88 26.75 44.23 37.29 39.9 28.39 33.88"/><polygon class="cls-13" points="13.13 50 19.77 50 15.25 45.2 13.13 50"/><polygon class="cls-20" points="4.04 7.96 5.43 17.3 15.25 7.35 4.04 7.96"/><polygon class="cls-21" points="0 30.66 5.61 29.85 0 22.9 0 30.66"/><polygon class="cls-22" points="8.11 50 13.11 50 15.25 45.2 3.43 40 8.11 50"/><polygon class="cls-23" points="26.75 44.23 31.19 50 35.51 50 37.29 39.9 26.75 44.23"/><polygon class="cls-24" points="35.21 30.46 38.5 21.17 29.57 17.6 35.21 30.46"/><polygon class="cls-1" points="35.21 30.46 38.5 21.17 29.57 17.6 35.21 30.46"/><polygon class="cls-7" points="35.21 30.46 43.18 21.53 38.5 21.17 35.21 30.46"/><polygon class="cls-1" points="35.21 30.46 43.18 21.53 38.5 21.17 35.21 30.46"/><polygon class="cls-24" points="3.52 50 8.13 50 3.43 40 3.52 50"/><polygon class="cls-25" points="0 17.8 0 22.9 5.61 29.85 5.43 17.3 0 17.8"/><polygon class="cls-19" points="23.46 50 28.01 50 26.75 44.23 23.46 50"/><polygon class="cls-26" points="18.02 0 15.25 7.35 23.04 7.4 20.64 0 18.02 0"/><polygon class="cls-27" points="4.71 0 4.04 7.96 15.25 7.35 6.78 0 4.71 0"/><polygon class="cls-28" points="20.64 0 23.04 7.4 27.03 0 20.64 0"/><g class="cls-29"><polygon class="cls-1" points="27.04 -0.03 20.63 -0.03 23.04 7.4 27.04 -0.03"/></g><polygon class="cls-30" points="27.03 0 23.04 7.4 29.43 10.15 29.4 0 27.03 0"/><polygon class="cls-31" points="0 17.8 5.43 17.3 0 12.06 0 17.8"/><polygon class="cls-32" points="0 41.08 3.43 40 0 35.16 0 41.08"/><polygon class="cls-33" points="0 8.63 0 12.06 5.43 17.3 4.04 7.96 0 8.63"/><polygon class="cls-34" points="13.43 0 15.25 7.35 18.02 0 13.43 0"/><polygon class="cls-35" points="0 47.17 0 50 3.52 50 3.43 40 0 47.17"/><polygon class="cls-36" points="6.78 0 15.25 7.35 13.43 0 6.78 0"/><polygon class="cls-37" points="28.01 50 31.19 50 26.75 44.23 28.01 50"/><polygon class="cls-38" points="3.64 0 0 5.05 0 8.63 4.04 7.96 4.71 0 3.64 0"/><polygon class="cls-39" points="29.4 0 29.43 10.15 39.25 7.6 32.99 0 29.4 0"/><polygon class="cls-40" points="38.5 21.17 39.25 7.6 29.57 17.6 38.5 21.17"/><polygon class="cls-41" points="46.54 32.24 43.18 21.53 35.21 30.46 46.54 32.24"/><polygon class="cls-1" points="46.54 32.24 43.18 21.53 35.21 30.46 46.54 32.24"/><polygon class="cls-42" points="37.29 39.9 43.39 40.26 35.21 30.46 37.29 39.9"/><polygon class="cls-1" points="37.29 39.9 43.39 40.26 35.21 30.46 37.29 39.9"/><polygon class="cls-43" points="38.5 21.17 43.18 21.53 39.25 7.6 38.5 21.17"/><polygon class="cls-1" points="38.5 21.17 43.18 21.53 39.25 7.6 38.5 21.17"/><polygon class="cls-44" points="35.46 50 37.5 50 43.39 40.26 37.29 39.9 35.46 50"/><polygon class="cls-9" points="0 41.08 0 47.17 3.43 40 0 41.08"/><polygon class="cls-45" points="37.62 0 39.25 7.6 43.19 0 37.62 0"/><polygon class="cls-46" points="43.39 40.26 46.54 32.24 35.21 30.46 43.39 40.26"/><polygon class="cls-1" points="43.39 40.26 46.54 32.24 35.21 30.46 43.39 40.26"/><polygon class="cls-39" points="32.99 0 39.25 7.6 37.62 0 32.99 0"/><polygon class="cls-8" points="43.18 21.53 46.89 7.25 39.25 7.6 43.18 21.53"/><polygon class="cls-47" points="43.39 40.26 50 35.2 50 32.83 46.54 32.24 43.39 40.26"/><g class="cls-29"><polygon class="cls-1" points="43.39 40.26 50 35.2 50 32.83 46.54 32.24 43.39 40.26"/></g><polygon class="cls-48" points="37.5 50 44.35 50 43.39 40.26 37.5 50"/><polygon class="cls-49" points="0 0 0 5.05 3.64 0 0 0"/><polygon class="cls-50" points="43.18 21.53 50 19.62 50 11.81 46.89 7.25 43.18 21.53"/><polygon class="cls-41" points="43.18 21.53 46.54 32.24 50 26.18 50 19.62 43.18 21.53"/><polygon class="cls-51" points="43.39 40.26 50 43.47 50 35.2 43.39 40.26"/><g class="cls-29"><polygon class="cls-1" points="50 43.47 50 35.2 43.39 40.26 50 43.47"/></g><polygon class="cls-52" points="44.35 50 49.88 50 43.39 40.26 44.35 50"/><polygon class="cls-53" points="46.54 32.24 50 32.83 50 26.18 46.54 32.24"/><polygon class="cls-40" points="43.19 0 39.25 7.6 46.89 7.25 46.93 0 43.19 0"/><polygon class="cls-54" points="46.93 0 46.89 7.25 50 1.15 50 0 46.93 0"/><polygon class="cls-52" points="49.88 50 50 50 50 43.47 43.39 40.26 49.88 50"/><polygon class="cls-55" points="46.89 7.25 50 11.81 50 6.77 46.89 7.25"/><polygon class="cls-56" points="46.89 7.25 50 6.77 50 1.15 46.89 7.25"/><path class="cls-57" d="M19.41,12.32A6.46,6.46,0,1,0,7.33,15.51L13,25.1l5.62-9.59A6.51,6.51,0,0,0,19.41,12.32ZM13,8.87A3.45,3.45,0,1,1,9.5,12.32,3.45,3.45,0,0,1,13,8.87Z"/><path class="cls-58" d="M13,25.1c4.36-.29,8.73-.52,13.1-.6a63.14,63.14,0,0,1,6.59.14,6.76,6.76,0,0,1,1.69.34.78.78,0,0,1,.48.44.51.51,0,0,1-.1.5.85.85,0,0,1-.24.2,3.56,3.56,0,0,1-.84.33,31.86,31.86,0,0,1-3.25.68c-4.33.7-8.66,1.24-13,2-2.15.35-4.29.74-6.4,1.23a25.57,25.57,0,0,0-6,2A3.69,3.69,0,0,0,4,33.13c-.25.32-.23.4-.18.91a3,3,0,0,0,1.47,2A17.68,17.68,0,0,0,11,38.19a93,93,0,0,0,12.85,1.59c8.67.56,17.4.63,26.12.58l0,3c-8.76-.19-17.52-.5-26.28-1.31a94.72,94.72,0,0,1-13.1-2,27.29,27.29,0,0,1-3.24-1,13.39,13.39,0,0,1-3.13-1.59,5.75,5.75,0,0,1-1.36-1.34,4,4,0,0,1-.73-1.89,3.16,3.16,0,0,1,0-1.1,2.53,2.53,0,0,1,.57-1A5.48,5.48,0,0,1,4.28,31a27.37,27.37,0,0,1,6.46-2c2.16-.43,4.33-.76,6.51-1.05,4.34-.6,8.7-1,13-1.58a27.43,27.43,0,0,0,3.18-.57,2.93,2.93,0,0,0,.69-.24l.08-.06s0,.09,0,.12,0,0-.13-.07a6.6,6.6,0,0,0-1.5-.34,64.06,64.06,0,0,0-6.51-.33C21.69,24.84,17.32,24.94,13,25.1Z"/><rect class="cls-1" width="50" height="50"/></svg>