<?xml version="1.0" encoding="utf-8"?>
<!-- Generator: Adobe Illustrator 23.0.0, SVG Export Plug-In . SVG Version: 6.00 Build 0)  -->
<svg version="1.1" id="Ebene_1" xmlns="http://www.w3.org/2000/svg" xmlns:xlink="http://www.w3.org/1999/xlink" x="0px" y="0px"
	 viewBox="0 0 50 50" style="enable-background:new 0 0 50 50;" xml:space="preserve">
<style type="text/css">
	.st0{fill:#002E31;}
	.st1{fill:none;stroke:#A2A100;stroke-miterlimit:10;}
	.st2{fill:none;stroke:#A2A100;stroke-linecap:round;stroke-miterlimit:10;}
</style>
<title>appstore_icons</title>
<rect y="-0.1" class="st0" width="50" height="50.2"/>
<circle class="st1" cx="34.5" cy="25" r="4"/>
<path class="st2" d="M26.2,40V25c0-4.5,3.7-8.2,8.2-8.2s8.2,3.7,8.2,8.2c0,4.5-3.7,8.2-8.2,8.2c-1.6,0-3.1-0.5-4.5-1.3"/>
<path class="st2" d="M28.3,43.3V25c0-3.4,2.8-6.1,6.2-6.1s6.1,2.8,6.1,6.2c0,3.4-2.8,6.1-6.2,6.1c-1.1,0-2.1-0.3-3.1-0.8"/>
<circle class="st1" cx="15.6" cy="25" r="4"/>
<path class="st2" d="M23.8,10v15c0,4.5-3.7,8.2-8.2,8.2S7.4,29.6,7.4,25c0-4.5,3.7-8.2,8.2-8.2c1.6,0,3.1,0.5,4.5,1.3"/>
<path class="st2" d="M21.7,6.7V25c0,3.4-2.8,6.1-6.2,6.1S9.4,28.4,9.4,25s2.8-6.1,6.2-6.1c1.1,0,2.1,0.3,3.1,0.8"/>
</svg>
