<?xml version="1.0" encoding="utf-8"?>
<!-- Generator: Adobe Illustrator 16.0.3, SVG Export Plug-In . SVG Version: 6.00 Build 0)  -->
<!DOCTYPE svg PUBLIC "-//W3C//DTD SVG 1.1//EN" "http://www.w3.org/Graphics/SVG/1.1/DTD/svg11.dtd">
<svg version="1.1" xmlns="http://www.w3.org/2000/svg" xmlns:xlink="http://www.w3.org/1999/xlink" x="0px" y="0px" width="24px"
	 height="24px" viewBox="0 0 24 24" enable-background="new 0 0 24 24" xml:space="preserve">
<g id="Outline_Icons">
	<g>
		<path fill="none" stroke="#ffffff" stroke-linecap="round" stroke-linejoin="round" stroke-miterlimit="10" d="M23.5,19.5
			c0,0.549-0.45,1-1,1h-21c-0.55,0-1-0.451-1-1v-13c0-0.55,0.45-1,1-1h21c0.55,0,1,0.45,1,1V19.5z"/>
		<path fill="none" stroke="#ffffff" stroke-linejoin="round" stroke-miterlimit="10" d="M17.5,5.5v-1c0-0.55,0.45-1,1-1h2
			c0.55,0,1,0.45,1,1v1"/>

			<rect x="2.5" y="7.5" fill="none" stroke="#ffffff" stroke-linecap="round" stroke-linejoin="round" stroke-miterlimit="10" width="4" height="2"/>

			<circle fill="none" stroke="#ffffff" stroke-linecap="round" stroke-linejoin="round" stroke-miterlimit="10" cx="12" cy="14" r="4.5"/>
		<circle fill="none" stroke="#ffffff" stroke-linejoin="round" stroke-miterlimit="10" cx="12" cy="14" r="2"/>
		<line fill="none" stroke="#ffffff" stroke-linejoin="round" stroke-miterlimit="10" x1="0.5" y1="11.5" x2="8.25" y2="11.5"/>
		<line fill="none" stroke="#ffffff" stroke-linejoin="round" stroke-miterlimit="10" x1="0.5" y1="16.5" x2="8.281" y2="16.5"/>
		<line fill="none" stroke="#ffffff" stroke-linejoin="round" stroke-miterlimit="10" x1="15.766" y1="11.5" x2="23.5" y2="11.5"/>
		<line fill="none" stroke="#ffffff" stroke-linejoin="round" stroke-miterlimit="10" x1="23.5" y1="16.5" x2="15.75" y2="16.5"/>
		<circle fill="none" stroke="#ffffff" stroke-linejoin="round" stroke-miterlimit="10" cx="20" cy="9" r="0.5"/>
	</g>
</g>
<g id="Invisible_Shape">
	<rect fill="none" width="24" height="24"/>
</g>
</svg>
