<svg id="Ebene_1" data-name="Ebene 1" xmlns="http://www.w3.org/2000/svg" xmlns:xlink="http://www.w3.org/1999/xlink" viewBox="0 0 50 50"><defs><style>.cls-1{fill:#b97831;}.cls-2{fill:#efa531;}.cls-3{fill:#d15131;}.cls-4{fill:url(#Unbenannter_Verlauf_14);}</style><linearGradient id="Unbenannter_Verlauf_14" x1="10.37" y1="24.93" x2="39.59" y2="24.93" gradientUnits="userSpaceOnUse"><stop offset="0" stop-color="#d15131"/><stop offset="1" stop-color="#efa531"/></linearGradient></defs><title>appstore_icons</title><polygon class="cls-1" points="0 24.98 34.83 23.95 24.61 49.99 0 49.96 0 24.98"/><polygon class="cls-2" points="0 9.02 22.08 17.45 23.78 29.15 0 39.7 0 9.02"/><polygon class="cls-3" points="31.94 0.01 25.69 27.4 0 11.34 0 -0.01 31.94 0.01"/><polygon class="cls-1" points="50 25 15.17 26.02 25.39 -0.01 50 0.01 50 25"/><polygon class="cls-3" points="50 49.99 24.61 49.99 21.38 31.79 50 25.11 50 49.99"/><polygon class="cls-2" points="50 39.7 27.92 31.27 26.21 19.58 50 9.02 50 39.7"/><circle cx="25" cy="25" r="21.51"/><path class="cls-4" d="M39.41,26.64a14.61,14.61,0,1,0-25.68,7,1,1,0,0,1,.21.76l-.3,1.92a1,1,0,0,0,.68,1.08,68.66,68.66,0,0,0,8.35,1.67,67.42,67.42,0,0,0,8.47,1,1,1,0,0,0,1-.82l.3-1.92a1,1,0,0,1,.44-.66A14.54,14.54,0,0,0,39.41,26.64Z"/><polygon points="25.38 33.04 25.21 31.02 24.94 31.88 24.22 29.95 20.36 34.51 26.28 35.44 25.38 33.04"/><path d="M22.68,24.17h-.13a8,8,0,0,1-4.85-2.55,4.1,4.1,0,0,0-2.4,1.86l-.24-.29.09.55a2.28,2.28,0,0,0-.15.36l-.52-1,.24,2.56h0a4.1,4.1,0,1,0,8-1.48Z"/><path d="M32.59,23.63a7.94,7.94,0,0,1-5.46,1.23,4.17,4.17,0,0,0-.68,1.68h0l-.19,2.59.36-.7a4.1,4.1,0,1,0,6-4.8Z"/></svg>