<?xml version="1.0" encoding="utf-8"?>
<!-- Generator: Adobe Illustrator 16.0.3, SVG Export Plug-In . SVG Version: 6.00 Build 0)  -->
<!DOCTYPE svg PUBLIC "-//W3C//DTD SVG 1.1//EN" "http://www.w3.org/Graphics/SVG/1.1/DTD/svg11.dtd">
<svg version="1.1" xmlns="http://www.w3.org/2000/svg" xmlns:xlink="http://www.w3.org/1999/xlink" x="0px" y="0px" width="24px"
	 height="24px" viewBox="0 0 24 24" enable-background="new 0 0 24 24" xml:space="preserve">
<g id="Outline_Icons">
	<g>
		<path fill="none" stroke="#ffffff" stroke-linecap="round" stroke-linejoin="round" stroke-miterlimit="10" d="M20.5,9
			c0-4.693-3.806-8.5-8.5-8.5S3.5,4.307,3.5,9v13.5c0,0.551,0.45,1,1,1H5c0.551,0,1-0.449,1-1l0,0c0-0.549,0.45-1,1-1l0,0
			c0.551,0,1,0.451,1,1l0,0c0,0.551,0.45,1,1,1h1c0.551,0,1-0.449,1-1l0,0c0-0.549,0.45-1,1-1l0,0c0.551,0,1,0.451,1,1l0,0
			c0,0.551,0.45,1,1,1h1c0.551,0,1-0.449,1-1l0,0c0-0.549,0.45-1,1-1l0,0c0.551,0,1,0.451,1,1l0,0c0,0.551,0.45,1,1,1h0.5
			c0.551,0,1-0.449,1-1V9z"/>
		<path fill="none" stroke="#ffffff" stroke-linecap="round" stroke-linejoin="round" stroke-miterlimit="10" d="M16.5,12
			c0,0.826-0.675,1.5-1.5,1.5l0,0c-0.824,0-1.5-0.674-1.5-1.5V9c0-0.824,0.676-1.5,1.5-1.5l0,0c0.825,0,1.5,0.676,1.5,1.5V12z"/>

			<circle fill="none" stroke="#ffffff" stroke-linecap="round" stroke-linejoin="round" stroke-miterlimit="10" cx="14" cy="11" r="0.5"/>
		<path fill="none" stroke="#ffffff" stroke-linecap="round" stroke-linejoin="round" stroke-miterlimit="10" d="M10.5,12
			c0,0.826-0.675,1.5-1.5,1.5l0,0c-0.824,0-1.5-0.674-1.5-1.5V9c0-0.824,0.676-1.5,1.5-1.5l0,0c0.825,0,1.5,0.676,1.5,1.5V12z"/>

			<circle fill="none" stroke="#ffffff" stroke-linecap="round" stroke-linejoin="round" stroke-miterlimit="10" cx="8" cy="11" r="0.5"/>
	</g>
</g>
<g id="invisible_shape">
	<rect fill="none" width="24" height="24"/>
</g>
</svg>
