<svg id="Ebene_1" data-name="Ebene 1" xmlns="http://www.w3.org/2000/svg" viewBox="0 0 50 50"><defs><style>.cls-1{fill:#ffdd41;}.cls-2{fill:none;stroke:#1c5b8e;stroke-miterlimit:10;stroke-width:2px;}.cls-3{fill:#1c5b8e;}</style></defs><title>appstore_icons</title><rect class="cls-1" y="0.02" width="50" height="50"/><path class="cls-2" d="M9,35.36l6.26-5.13a30.49,30.49,0,0,0,10.24,1.71c11.85,0,21.45-6.34,21.45-14.16S37.33,3.62,25.48,3.62,4,10,4,17.78c0,3.57,2,6.83,5.3,9.32Z"/><path class="cls-3" d="M9.51,22l1.77-8.35h1.86L11.37,22Z"/><path class="cls-3" d="M14.46,19.25l-.21,1.05c-.07.35,0,.46.18.46s.3-.12.39-.49l.09-.45h1.8l-.05.3a2.13,2.13,0,0,1-2.39,2c-1.74,0-2.08-1-1.77-2.45l.43-2.05c.3-1.39.92-2.17,2.45-2.17,1.74,0,2.06.91,1.76,2.35l-.3,1.42Zm.81-1.19.11-.52c.11-.49.13-.72-.13-.72s-.3.15-.42.76l-.1.48Z"/><path class="cls-3" d="M21.45,20.29c-.08.36-.3,1.51-.34,1.75H19.3c0-.14,0-.3.06-.47a1.42,1.42,0,0,1-1.2.58c-.87,0-1.26-.73-1-2.15s1.05-1.95,2.9-2.07l.13-.64c.08-.41,0-.51-.17-.51s-.28.09-.36.46l-.07.32H17.9l.05-.23a2,2,0,0,1,2.24-1.85c1.33,0,2.2.42,1.85,2.05Zm-1.62-1.13c-.45.07-.63.17-.77.85-.08.45,0,.62.2.62s.31-.2.36-.4Z"/><path class="cls-3" d="M25.76,17.69c-1.14-.07-1.31.5-1.45,1.18L23.64,22H21.78l.9-4.26c.24-1.15.38-1.87.44-2.2h1.8c0,.2-.07.56-.13.84a1.51,1.51,0,0,1,1.44-.94Z"/><path class="cls-3" d="M26.35,17.4c.18-.86.34-1.67.36-1.82h1.81c0,.1-.05.38-.07.5a1.57,1.57,0,0,1,1.24-.6c1,0,1.22.66,1,1.6l-1,5H27.79l1-4.57c.05-.2.07-.47-.16-.47s-.33.16-.42.54l-1,4.5H25.37Z"/><path class="cls-3" d="M33.16,15.58H35L33.66,22H31.8Zm.4-1.89h1.86l-.31,1.49H33.25Z"/><path class="cls-3" d="M35.54,15.58h.61l.29-1.33h1.83L38,15.58h.63L38.3,17.1h-.64l-.67,3c-.06.29,0,.39.34.39h.26L37.28,22a3.77,3.77,0,0,1-1,.12c-1.14,0-1.47-.48-1.25-1.56l.76-3.44h-.56Z"/><path class="cls-3" d="M38.24,22l.5-2.41h1.84L40.08,22Zm.67-3,.64-3.77.24-1.23h2.06l-.25,1.18-1,3.82Z"/><path class="cls-3" d="M0,45a4.93,4.93,0,0,0,.49,2.13h49A4.93,4.93,0,0,0,50,45V40H0Z"/><path class="cls-1" d="M11.39,41.23h.94l-.25,1.19a.73.73,0,0,1,.57-.28c.54,0,.64.42.51,1l-.27,1.28c-.13.6-.3,1.07-.9,1.07-.34,0-.47-.18-.5-.33,0,.12-.07.21-.09.28h-.91c.08-.33.14-.61.17-.78Zm.81,2c0-.17.05-.29-.08-.29s-.16.11-.2.28l-.27,1.26c-.05.26,0,.29.09.29s.14,0,.2-.28Z"/><path class="cls-1" d="M14.21,44l-.1.54c0,.18,0,.23.09.23s.15-.06.2-.25l0-.22h.91l0,.15a1.07,1.07,0,0,1-1.21,1c-.88,0-1-.48-.89-1.23l.21-1c.16-.71.46-1.1,1.24-1.1s1.05.46.89,1.19l-.15.71Zm.42-.6,0-.26c.06-.25.07-.36-.06-.36s-.16.07-.22.38l-.05.24Z"/><path class="cls-1" d="M16.45,44.41l0,.2c0,.17,0,.25.09.25s.13,0,.16-.2,0-.32-.26-.57c-.48-.39-.6-.65-.5-1.14a.93.93,0,0,1,1-.81c.91,0,1,.56.89,1l0,.12H17l0-.17c0-.19,0-.29-.07-.29s-.12,0-.14.16,0,.27.19.44c.57.47.71.72.61,1.28a1,1,0,0,1-1.14.86c-.92,0-1-.55-.88-1l0-.09Z"/><path class="cls-1" d="M18.21,42.19h.31l.14-.68h.93l-.14.68h.32L19.6,43h-.32l-.34,1.53c0,.15,0,.2.17.2h.14l-.16.75a2.21,2.21,0,0,1-.51.06c-.58,0-.75-.24-.63-.79L18.33,43H18Z"/><path class="cls-1" d="M22.39,44.57c0,.19-.15.77-.17.89H21.3q0-.1,0-.24a.7.7,0,0,1-.6.29c-.45,0-.64-.37-.49-1.08s.53-1,1.46-1l.07-.33c0-.2,0-.26-.08-.26s-.14.05-.19.24l0,.16h-.88l0-.12a1,1,0,0,1,1.13-.93c.68,0,1.11.21.94,1ZM21.57,44c-.23,0-.32.09-.39.43s0,.31.1.31.16-.09.18-.2Z"/><path class="cls-1" d="M23.05,43.13c.09-.44.17-.83.18-.94h.93c0,.07,0,.22-.05.3a.76.76,0,0,1,.65-.35c.45,0,.59.34.47,1l-.32,1.53c-.11.5-.32.89-.88.89a.52.52,0,0,1-.49-.27l-.26,1.23h-.94Zm.66,1.32c0,.18,0,.29.09.29s.14-.05.19-.25l.28-1.35c0-.15,0-.24-.09-.24s-.17.1-.21.29Z"/><path class="cls-1" d="M25.54,43.13c.09-.44.17-.83.19-.94h.92a1.65,1.65,0,0,1,0,.3.73.73,0,0,1,.64-.35c.46,0,.6.34.47,1l-.32,1.53c-.11.5-.31.89-.88.89a.5.5,0,0,1-.48-.27l-.27,1.23h-.93Zm.66,1.32c0,.18,0,.29.09.29s.15-.05.19-.25l.28-1.35c0-.15,0-.24-.09-.24s-.16.1-.21.29Z"/><path class="cls-1" d="M28.25,45.46l0-.1a3.49,3.49,0,0,1,.94-1.78c.61-.62.68-.71.76-1.11,0-.21,0-.29-.08-.29s-.13,0-.19.29l-.07.34h-.85l.05-.27c.11-.54.3-1.07,1.13-1.07s1,.5.88,1.22c-.11.55-.36.75-.82,1.26a2.55,2.55,0,0,0-.54.74h1l-.26.77Z"/><path class="cls-1" d="M33.27,42.64l-.38,1.8c-.15.73-.41,1.08-1.21,1.08s-1.05-.44-.89-1.2l.38-1.79c.18-.85.58-1.06,1.2-1.06S33.46,41.79,33.27,42.64Zm-1.16-.23-.46,2.15c0,.16,0,.25.11.25s.15-.08.18-.25l.46-2.15c0-.13,0-.23-.1-.23S32.13,42.28,32.11,42.41Z"/><path class="cls-1" d="M33.21,45.46l.64-3a1,1,0,0,1-.24,0l.13-.62a.76.76,0,0,0,.52-.25H35l-.84,4Z"/><path class="cls-1" d="M35.66,44.37l0,.17c0,.2,0,.26.1.26s.15-.08.18-.23l.16-.76a.66.66,0,0,1-.51.22c-.53,0-.65-.42-.53-1l.14-.67a1.05,1.05,0,0,1,1.13-.92c.72,0,1.12.35,1,1.14l-.38,1.82c-.16.77-.45,1.09-1.26,1.09-1,0-1-.62-.86-1l0-.11Zm.42-2-.14.64c0,.15,0,.24.09.24s.17-.07.21-.24l.14-.66c0-.12,0-.21-.11-.21S36.12,42.24,36.08,42.4Z"/><path class="cls-1" d="M37.16,45.46l.25-1.22h.93l-.25,1.22ZM37.5,44,37.82,42l.12-.62h1l-.12.59L38.36,44Z"/></svg>