<?xml version="1.0" encoding="utf-8"?>
<!-- Generator: Adobe Illustrator 16.0.3, SVG Export Plug-In . SVG Version: 6.00 Build 0)  -->
<!DOCTYPE svg PUBLIC "-//W3C//DTD SVG 1.1//EN" "http://www.w3.org/Graphics/SVG/1.1/DTD/svg11.dtd">
<svg version="1.1" xmlns="http://www.w3.org/2000/svg" xmlns:xlink="http://www.w3.org/1999/xlink" x="0px" y="0px" width="24px"
	 height="24px" viewBox="0 0 24 24" enable-background="new 0 0 24 24" xml:space="preserve">
<g id="Outline_Icons_1_">
	<g id="Outline_Icons">
		<g>
			<path fill="none" stroke="#ffffff" stroke-linecap="round" stroke-linejoin="round" stroke-miterlimit="10" d="M5.5,8.493
				c0,0.552,0.447,1,1,1h1l3,3v-3h7c0.552,0,1-0.448,1-1v-7c0-0.552-0.448-1-1-1h-11c-0.553,0-1,0.448-1,1V8.493z"/>

				<circle fill="none" stroke="#ffffff" stroke-linecap="round" stroke-linejoin="round" stroke-miterlimit="10" cx="19.5" cy="14.008" r="2.5"/>
			<path fill="none" stroke="#ffffff" stroke-linecap="round" stroke-linejoin="round" stroke-miterlimit="10" d="M23.5,20.508h-8
				c0-2.209,1.79-4,4-4S23.5,18.299,23.5,20.508z"/>

				<circle fill="none" stroke="#ffffff" stroke-linecap="round" stroke-linejoin="round" stroke-miterlimit="10" cx="4.5" cy="14.008" r="2.5"/>
			<path fill="none" stroke="#ffffff" stroke-linecap="round" stroke-linejoin="round" stroke-miterlimit="10" d="M8.5,20.508h-8
				c0-2.209,1.79-4,4-4S8.5,18.299,8.5,20.508z"/>

				<circle fill="none" stroke="#ffffff" stroke-linecap="round" stroke-linejoin="round" stroke-miterlimit="10" cx="12" cy="17.008" r="2.5"/>
			<path fill="none" stroke="#ffffff" stroke-linecap="round" stroke-linejoin="round" stroke-miterlimit="10" d="M16,23.508H8
				c0-2.209,1.79-4,4-4S16,21.299,16,23.508z"/>

				<line fill="none" stroke="#ffffff" stroke-linecap="round" stroke-linejoin="round" stroke-miterlimit="10" x1="8.5" y1="2.493" x2="15.469" y2="2.493"/>

				<line fill="none" stroke="#ffffff" stroke-linecap="round" stroke-linejoin="round" stroke-miterlimit="10" x1="8.5" y1="4.493" x2="15.469" y2="4.493"/>

				<line fill="none" stroke="#ffffff" stroke-linecap="round" stroke-linejoin="round" stroke-miterlimit="10" x1="8.5" y1="6.493" x2="15.469" y2="6.493"/>
		</g>
	</g>
	<g id="New_icons_1_">
	</g>
</g>
<g id="Invisible_Shape">
	<rect fill="none" width="24" height="24"/>
</g>
</svg>
