<?xml version="1.0" encoding="utf-8"?>
<!-- Generator: Adobe Illustrator 16.0.3, SVG Export Plug-In . SVG Version: 6.00 Build 0)  -->
<!DOCTYPE svg PUBLIC "-//W3C//DTD SVG 1.1//EN" "http://www.w3.org/Graphics/SVG/1.1/DTD/svg11.dtd">
<svg version="1.1" xmlns="http://www.w3.org/2000/svg" xmlns:xlink="http://www.w3.org/1999/xlink" x="0px" y="0px" width="24px"
	 height="24px" viewBox="0 0 24 24" enable-background="new 0 0 24 24" xml:space="preserve">
<g id="Outline_Icons">
	<g>
		<g>
			<g>
				<path d="M19.5,19.5c-0.276,0-0.5,0.224-0.5,0.5s0.224,0.5,0.5,0.5S20,20.276,20,20S19.776,19.5,19.5,19.5L19.5,19.5z"/>
			</g>
		</g>
		<g>
			<g>
				<path d="M19.5,22.5c-0.276,0-0.5,0.224-0.5,0.5s0.224,0.5,0.5,0.5S20,23.276,20,23S19.776,22.5,19.5,22.5L19.5,22.5z"/>
			</g>
		</g>
		<g>
			<g>
				<path d="M17.5,21c-0.276,0-0.5,0.224-0.5,0.5s0.224,0.5,0.5,0.5s0.5-0.224,0.5-0.5S17.776,21,17.5,21L17.5,21z"/>
			</g>
		</g>
		<g>
			<g>
				<path d="M17.5,18c-0.276,0-0.5,0.224-0.5,0.5s0.224,0.5,0.5,0.5s0.5-0.224,0.5-0.5S17.776,18,17.5,18L17.5,18z"/>
			</g>
		</g>
		<g>
			<g>
				<path d="M9.5,21C9.224,21,9,21.224,9,21.5S9.224,22,9.5,22s0.5-0.224,0.5-0.5S9.776,21,9.5,21L9.5,21z"/>
			</g>
		</g>
		<g>
			<g>
				<path d="M7.5,22.5C7.224,22.5,7,22.724,7,23s0.224,0.5,0.5,0.5S8,23.276,8,23S7.776,22.5,7.5,22.5L7.5,22.5z"/>
			</g>
		</g>
		<g>
			<g>
				<path d="M9.5,18C9.224,18,9,18.224,9,18.5S9.224,19,9.5,19s0.5-0.224,0.5-0.5S9.776,18,9.5,18L9.5,18z"/>
			</g>
		</g>
		<g>
			<g>
				<path d="M7.5,19.5C7.224,19.5,7,19.724,7,20s0.224,0.5,0.5,0.5S8,20.276,8,20S7.776,19.5,7.5,19.5L7.5,19.5z"/>
			</g>
		</g>
		<polyline fill="none" stroke="#ffffff" stroke-linecap="round" stroke-linejoin="round" stroke-miterlimit="10" points="
			12.5,23.5 15,21.015 12.5,21.015 15,18.508 		"/>

			<line fill="none" stroke="#ffffff" stroke-linecap="round" stroke-linejoin="round" stroke-miterlimit="10" x1="2.224" y1="2.223" x2="3" y2="3"/>

			<line fill="none" stroke="#ffffff" stroke-linecap="round" stroke-linejoin="round" stroke-miterlimit="10" x1="12.776" y1="2.223" x2="12" y2="3"/>
		<path fill="none" stroke="#ffffff" stroke-linecap="round" stroke-linejoin="round" stroke-miterlimit="10" d="M21.988,19.633
			C22.909,18.9,23.5,17.77,23.5,16.5c0-1.373-0.693-2.585-1.748-3.306c0.916-2.109-0.801-4.457-3.123-4.169
			C17.834,6.965,15.84,5.5,13.5,5.5c-2.877,0-5.234,2.21-5.477,5.024C5.486,10.764,3.5,12.899,3.5,15.5
			c0,1.831,0.984,3.433,2.452,4.304"/>
		<path fill="none" stroke="#ffffff" stroke-linecap="round" stroke-linejoin="round" stroke-miterlimit="10" d="M4.174,9.723
			C3.748,9.087,3.5,8.322,3.5,7.5c0-2.209,1.791-4,4-4c0.961,0,1.842,0.339,2.532,0.903"/>

			<line fill="none" stroke="#ffffff" stroke-linecap="round" stroke-linejoin="round" stroke-miterlimit="10" x1="0.5" y1="6.5" x2="1.5" y2="6.5"/>

			<line fill="none" stroke="#ffffff" stroke-linecap="round" stroke-linejoin="round" stroke-miterlimit="10" x1="7.5" y1="0.5" x2="7.5" y2="1.5"/>
	</g>
</g>
<g id="Invisible_Shape">
	<rect fill="none" width="24" height="24"/>
</g>
</svg>
