<?xml version="1.0" encoding="UTF-8"?>
<svg xmlns="http://www.w3.org/2000/svg" xmlns:xlink="http://www.w3.org/1999/xlink" width="67.5pt" height="67.5pt" viewBox="0 0 67.5 67.5" version="1.1">
    <g id="surface2172">
        <path style=" stroke:none;fill-rule:nonzero;fill:#ffffff;fill-opacity:1;" d="M 5.667969 13.398438 L 30.84375 36.898438 C 32.332031 38.292969 34.667969 38.292969 36.15625 36.898438 L 61.332031 13.398438 Z M 2.234375 16.304688 L 2.234375 50.441406 L 19.890625 32.785156 Z M 64.765625 16.304688 L 48.492188 31.492188 C 49.433594 31.359375 50.386719 31.265625 51.367188 31.265625 C 56.519531 31.265625 61.207031 33.222656 64.765625 36.414062 Z M 51.367188 35.734375 C 42.734375 35.734375 35.734375 42.734375 35.734375 51.367188 C 35.734375 60 42.734375 67 51.367188 67 C 60 67 67 60 67 51.367188 C 67 42.734375 60 35.734375 51.367188 35.734375 Z M 23.152344 35.832031 L 5.390625 53.601562 L 31.398438 53.601562 C 31.316406 52.863281 31.265625 52.121094 31.265625 51.367188 C 31.265625 48.136719 32.046875 45.097656 33.398438 42.394531 C 31.378906 42.371094 29.367188 41.628906 27.792969 40.160156 Z M 51.367188 42.433594 C 52.597656 42.433594 53.601562 43.429688 53.601562 44.667969 L 53.601562 49.132812 L 58.066406 49.132812 C 59.300781 49.132812 60.300781 50.132812 60.300781 51.367188 C 60.300781 52.601562 59.300781 53.601562 58.066406 53.601562 L 53.601562 53.601562 L 53.601562 58.066406 C 53.601562 59.300781 52.597656 60.300781 51.367188 60.300781 C 50.132812 60.300781 49.132812 59.300781 49.132812 58.066406 L 49.132812 53.601562 L 44.667969 53.601562 C 43.433594 53.601562 42.433594 52.601562 42.433594 51.367188 C 42.433594 50.132812 43.433594 49.132812 44.667969 49.132812 L 49.132812 49.132812 L 49.132812 44.667969 C 49.132812 43.429688 50.132812 42.433594 51.367188 42.433594 Z M 51.367188 42.433594 " />
    </g>
</svg>
