<?xml version="1.0" encoding="UTF-8"?>
<svg xmlns="http://www.w3.org/2000/svg" xmlns:xlink="http://www.w3.org/1999/xlink" width="67.5pt" height="67.5pt" viewBox="0 0 67.5 67.5" version="1.1">
    <g id="surface2288">
        <path style=" stroke:none;fill-rule:nonzero;fill:#ffffff;fill-opacity:1;" d="M 33.5 2.257812 C 31.652344 2.257812 29.804688 2.851562 28.265625 4.042969 L 5.6875 21.488281 L 17.867188 31.0625 L 17.867188 20.101562 C 17.867188 17.632812 19.867188 15.632812 22.332031 15.632812 L 44.667969 15.632812 C 47.132812 15.632812 49.132812 17.632812 49.132812 20.101562 L 49.132812 31.0625 L 61.3125 21.488281 L 38.734375 4.042969 C 37.195312 2.851562 35.347656 2.257812 33.5 2.257812 Z M 33.5 20.101562 C 32.789062 20.101562 32.117188 20.441406 31.699219 21.015625 C 31.695312 21.015625 31.695312 21.019531 31.695312 21.019531 L 24.566406 29.035156 L 31.265625 29.035156 L 31.265625 40.199219 C 31.253906 41.003906 31.679688 41.753906 32.375 42.160156 C 33.070312 42.566406 33.929688 42.566406 34.625 42.160156 C 35.320312 41.753906 35.746094 41.003906 35.734375 40.199219 L 35.734375 29.035156 L 42.433594 29.035156 L 35.300781 21.015625 C 34.882812 20.441406 34.210938 20.101562 33.5 20.101562 Z M 4.464844 26.210938 L 4.464844 52.675781 L 19.285156 37.851562 Z M 62.535156 26.210938 L 47.714844 37.859375 L 62.535156 52.675781 Z M 22.820312 40.632812 L 5.390625 58.066406 L 61.609375 58.066406 L 44.179688 40.636719 L 38.328125 45.230469 C 36.90625 46.347656 35.203125 46.90625 33.5 46.90625 C 31.796875 46.90625 30.089844 46.347656 28.671875 45.230469 Z M 22.820312 40.632812 " />
    </g>
</svg>
