<?xml version="1.0" encoding="UTF-8"?>
<svg xmlns="http://www.w3.org/2000/svg" xmlns:xlink="http://www.w3.org/1999/xlink" width="67.5pt" height="67.5pt" viewBox="0 0 67.5 67.5" version="1.1">
    <g id="surface1840">
        <path style=" stroke:none;fill-rule:nonzero;fill:#ffffff;fill-opacity:1;" d="M 13.398438 8.933594 C 12.59375 8.921875 11.84375 9.34375 11.4375 10.039062 C 11.035156 10.738281 11.035156 11.597656 11.4375 12.292969 C 11.84375 12.988281 12.59375 13.410156 13.398438 13.398438 L 53.601562 13.398438 C 54.40625 13.410156 55.15625 12.988281 55.5625 12.292969 C 55.964844 11.597656 55.964844 10.738281 55.5625 10.039062 C 55.15625 9.34375 54.40625 8.921875 53.601562 8.933594 Z M 10.179688 17.867188 L 30.78125 36.886719 C 32.304688 38.292969 34.695312 38.292969 36.21875 36.886719 L 56.820312 17.867188 Z M 6.699219 20.734375 L 6.699219 50.441406 L 22.148438 34.996094 Z M 60.300781 20.734375 L 48.675781 31.46875 C 49.558594 31.347656 50.449219 31.265625 51.367188 31.265625 C 54.582031 31.265625 57.605469 32.039062 60.300781 33.382812 Z M 51.367188 35.734375 C 42.734375 35.734375 35.734375 42.734375 35.734375 51.367188 C 35.734375 60 42.734375 67 51.367188 67 C 60 67 67 60 67 51.367188 C 67 42.734375 60 35.734375 51.367188 35.734375 Z M 25.433594 38.023438 L 9.859375 53.601562 L 31.398438 53.601562 C 31.316406 52.863281 31.265625 52.121094 31.265625 51.367188 C 31.265625 48.136719 32.046875 45.09375 33.398438 42.390625 C 31.363281 42.367188 29.335938 41.628906 27.75 40.164062 Z M 51.367188 42.433594 L 60.300781 51.367188 L 51.367188 60.300781 L 51.367188 53.601562 L 44.667969 53.601562 C 43.433594 53.601562 42.433594 52.601562 42.433594 51.367188 C 42.433594 50.132812 43.433594 49.132812 44.667969 49.132812 L 51.367188 49.132812 Z M 51.367188 42.433594 " />
    </g>
</svg>
