<?xml version="1.0" encoding="UTF-8"?>
<svg xmlns="http://www.w3.org/2000/svg" xmlns:xlink="http://www.w3.org/1999/xlink" width="67.5pt" height="67.5pt" viewBox="0 0 67.5 67.5" version="1.1">
    <g id="surface2394">
        <path style=" stroke:none;fill-rule:nonzero;fill:#ffffff;fill-opacity:1;" d="M 33.5 4.464844 C 32.265625 4.464844 31.265625 5.46875 31.265625 6.699219 L 31.265625 7.082031 C 31.265625 8.152344 30.515625 9.105469 29.460938 9.273438 C 28.949219 9.355469 28.441406 9.453125 27.941406 9.566406 C 26.90625 9.800781 25.859375 9.214844 25.453125 8.234375 L 25.304688 7.886719 C 24.832031 6.746094 23.527344 6.203125 22.386719 6.679688 C 21.246094 7.148438 20.703125 8.457031 21.175781 9.597656 L 21.324219 9.953125 C 21.738281 10.9375 21.40625 12.101562 20.5 12.664062 C 20.0625 12.933594 19.636719 13.222656 19.21875 13.519531 C 18.351562 14.136719 17.152344 13.996094 16.402344 13.242188 L 16.128906 12.972656 C 15.257812 12.097656 13.84375 12.097656 12.972656 12.972656 C 12.101562 13.847656 12.101562 15.257812 12.972656 16.128906 L 13.242188 16.402344 C 13.996094 17.152344 14.136719 18.351562 13.519531 19.21875 C 13.222656 19.636719 12.933594 20.0625 12.664062 20.5 C 12.101562 21.40625 10.933594 21.738281 9.949219 21.328125 L 9.597656 21.183594 C 8.457031 20.710938 7.148438 21.25 6.671875 22.390625 C 6.203125 23.527344 6.742188 24.835938 7.882812 25.308594 L 8.230469 25.453125 C 9.210938 25.859375 9.800781 26.90625 9.566406 27.941406 C 9.453125 28.441406 9.351562 28.949219 9.269531 29.460938 C 9.101562 30.511719 8.152344 31.265625 7.082031 31.265625 L 6.699219 31.265625 C 5.46875 31.265625 4.464844 32.265625 4.464844 33.5 C 4.464844 34.734375 5.46875 35.734375 6.699219 35.734375 L 7.082031 35.734375 C 8.152344 35.734375 9.105469 36.484375 9.273438 37.539062 C 9.355469 38.050781 9.453125 38.558594 9.566406 39.058594 C 9.800781 40.09375 9.214844 41.140625 8.234375 41.546875 L 7.886719 41.695312 C 6.746094 42.167969 6.203125 43.472656 6.679688 44.613281 C 7.148438 45.753906 8.457031 46.296875 9.597656 45.824219 L 9.953125 45.675781 C 10.9375 45.265625 12.101562 45.59375 12.667969 46.5 C 12.941406 46.9375 13.222656 47.367188 13.523438 47.785156 C 14.140625 48.652344 14 49.851562 13.246094 50.601562 L 12.972656 50.875 C 12.097656 51.746094 12.097656 53.160156 12.972656 54.03125 C 13.847656 54.902344 15.257812 54.90625 16.128906 54.03125 L 16.40625 53.761719 C 17.15625 53.007812 18.351562 52.863281 19.21875 53.480469 C 19.640625 53.78125 20.066406 54.070312 20.503906 54.339844 C 21.410156 54.90625 21.742188 56.070312 21.335938 57.054688 L 21.1875 57.40625 C 20.714844 58.546875 21.253906 59.855469 22.394531 60.332031 C 23.535156 60.800781 24.839844 60.261719 25.3125 59.121094 L 25.457031 58.773438 C 25.863281 57.792969 26.910156 57.203125 27.945312 57.4375 C 28.449219 57.550781 28.953125 57.652344 29.464844 57.734375 C 30.511719 57.898438 31.265625 58.847656 31.265625 59.917969 L 31.265625 60.300781 C 31.265625 61.53125 32.265625 62.535156 33.5 62.535156 C 34.734375 62.535156 35.734375 61.53125 35.734375 60.300781 L 35.734375 59.917969 C 35.734375 58.847656 36.484375 57.894531 37.539062 57.726562 C 38.050781 57.644531 38.558594 57.546875 39.058594 57.433594 C 40.09375 57.199219 41.140625 57.785156 41.546875 58.765625 L 41.695312 59.113281 C 42.167969 60.253906 43.472656 60.796875 44.613281 60.320312 C 45.753906 59.851562 46.296875 58.542969 45.824219 57.402344 L 45.675781 57.046875 C 45.265625 56.0625 45.59375 54.898438 46.5 54.332031 C 46.9375 54.058594 47.367188 53.777344 47.785156 53.476562 C 48.652344 52.859375 49.851562 53 50.601562 53.753906 L 50.875 54.027344 C 51.746094 54.902344 53.160156 54.902344 54.03125 54.027344 C 54.902344 53.152344 54.90625 51.742188 54.03125 50.871094 L 53.761719 50.59375 C 53.007812 49.84375 52.863281 48.648438 53.480469 47.78125 C 53.78125 47.359375 54.070312 46.933594 54.339844 46.496094 C 54.90625 45.589844 56.070312 45.257812 57.054688 45.664062 L 57.40625 45.8125 C 58.546875 46.285156 59.855469 45.746094 60.332031 44.605469 C 60.800781 43.464844 60.261719 42.160156 59.121094 41.6875 L 58.773438 41.542969 C 57.792969 41.136719 57.203125 40.089844 57.4375 39.054688 C 57.550781 38.550781 57.652344 38.046875 57.734375 37.535156 C 57.898438 36.488281 58.847656 35.734375 59.917969 35.734375 L 60.300781 35.734375 C 61.53125 35.734375 62.535156 34.734375 62.535156 33.5 C 62.535156 32.265625 61.53125 31.265625 60.300781 31.265625 L 59.917969 31.265625 C 58.847656 31.265625 57.894531 30.515625 57.726562 29.460938 C 57.644531 28.949219 57.546875 28.441406 57.433594 27.941406 C 57.199219 26.90625 57.785156 25.859375 58.765625 25.453125 L 59.113281 25.304688 C 60.253906 24.832031 60.796875 23.527344 60.320312 22.386719 C 59.851562 21.246094 58.542969 20.703125 57.402344 21.175781 L 57.046875 21.324219 C 56.0625 21.734375 54.898438 21.40625 54.332031 20.5 C 54.058594 20.0625 53.777344 19.632812 53.476562 19.214844 C 52.859375 18.347656 53 17.148438 53.753906 16.398438 L 54.027344 16.125 C 54.902344 15.253906 54.902344 13.839844 54.027344 12.96875 C 53.152344 12.09375 51.742188 12.09375 50.871094 12.96875 L 50.597656 13.242188 C 49.847656 13.996094 48.648438 14.140625 47.78125 13.523438 C 47.359375 13.222656 46.933594 12.933594 46.496094 12.664062 C 45.589844 12.101562 45.261719 10.933594 45.671875 9.949219 L 45.816406 9.597656 C 46.289062 8.457031 45.75 7.148438 44.609375 6.671875 C 43.472656 6.203125 42.164062 6.742188 41.691406 7.882812 L 41.542969 8.230469 C 41.136719 9.210938 40.089844 9.800781 39.054688 9.566406 C 38.550781 9.453125 38.046875 9.351562 37.535156 9.269531 C 36.484375 9.101562 35.734375 8.152344 35.734375 7.082031 L 35.734375 6.699219 C 35.734375 5.46875 34.734375 4.464844 33.5 4.464844 Z M 33.5 15.632812 C 42.609375 15.632812 50.113281 22.457031 51.214844 31.265625 L 37.359375 31.265625 C 36.5625 29.886719 35.09375 29.035156 33.5 29.035156 C 33.5 29.035156 33.496094 29.035156 33.496094 29.035156 L 26.570312 17.027344 C 28.699219 16.128906 31.042969 15.632812 33.5 15.632812 Z M 22.710938 19.28125 L 29.636719 31.265625 C 29.242188 31.945312 29.035156 32.714844 29.035156 33.5 C 29.035156 34.28125 29.242188 35.046875 29.636719 35.726562 L 22.707031 47.714844 C 18.417969 44.453125 15.632812 39.308594 15.632812 33.5 C 15.632812 27.691406 18.417969 22.542969 22.710938 19.28125 Z M 37.363281 35.734375 L 51.214844 35.734375 C 50.113281 44.542969 42.609375 51.367188 33.5 51.367188 C 31.042969 51.367188 28.699219 50.871094 26.570312 49.972656 L 33.496094 37.964844 C 33.496094 37.964844 33.5 37.964844 33.5 37.964844 C 35.09375 37.964844 36.566406 37.113281 37.363281 35.734375 Z M 37.363281 35.734375 " />
    </g>
</svg>
